<svg width="246" height="186" viewBox="0 0 246 186" fill="none" xmlns="http://www.w3.org/2000/svg">
<g clip-path="url(#clip0_4_3)">
<path d="M3 1.5H1.5V3V183V184.5H3H123H124.5V183V3V1.5H123H3Z" fill="url(#paint0_linear_4_3)" stroke="url(#paint1_linear_4_3)" stroke-width="3"/>
<path d="M123 1.5H121.5V3V183V184.5H123H243H244.5V183V3V1.5H243H123Z" fill="#F2F2F2" stroke="url(#paint2_linear_4_3)" stroke-width="3"/>
<path d="M123 33H33V63H123V33Z" fill="#F2F2F2"/>
<path d="M123 93H33V123H123V93Z" fill="#F2F2F2"/>
<path d="M33 33L33 153H63L63 33H33Z" fill="#F2F2F2"/>
<path d="M163 153L133 123H173L203 153H163Z" fill="url(#paint3_linear_4_3)"/>
<path d="M168 123C192.853 123 213 102.853 213 78C213 53.1472 192.853 33 168 33C143.147 33 123 53.1472 123 78C123 102.853 143.147 123 168 123Z" fill="url(#paint4_linear_4_3)"/>
<path d="M168 93C176.284 93 183 86.2843 183 78C183 69.7157 176.284 63 168 63C159.716 63 153 69.7157 153 78C153 86.2843 159.716 93 168 93Z" fill="#F2F2F2"/>
<path d="M165 63H123V93H165V63Z" fill="#F2F2F2"/>
<path d="M165 93H123V123H165V93Z" fill="url(#paint5_linear_4_3)"/>
<path d="M165 33H123V63H165V33Z" fill="url(#paint6_linear_4_3)"/>
</g>
<defs>
<linearGradient id="paint0_linear_4_3" x1="63" y1="1.5" x2="63" y2="184.5" gradientUnits="userSpaceOnUse">
<stop stop-color="#11DF97"/>
<stop offset="1" stop-color="#1E7FA9"/>
</linearGradient>
<linearGradient id="paint1_linear_4_3" x1="63" y1="1.5" x2="63" y2="184.5" gradientUnits="userSpaceOnUse">
<stop stop-color="#11DF97"/>
<stop offset="1" stop-color="#1E7FA9"/>
</linearGradient>
<linearGradient id="paint2_linear_4_3" x1="183" y1="1.5" x2="183" y2="184.5" gradientUnits="userSpaceOnUse">
<stop stop-color="#11DF97"/>
<stop offset="1" stop-color="#1E7FA9"/>
</linearGradient>
<linearGradient id="paint3_linear_4_3" x1="168" y1="3" x2="168" y2="183" gradientUnits="userSpaceOnUse">
<stop stop-color="#11DF97"/>
<stop offset="1" stop-color="#1E7FA9"/>
</linearGradient>
<linearGradient id="paint4_linear_4_3" x1="168" y1="-7.51019e-07" x2="168" y2="189" gradientUnits="userSpaceOnUse">
<stop stop-color="#11DF97"/>
<stop offset="1" stop-color="#1E7FA9"/>
</linearGradient>
<linearGradient id="paint5_linear_4_3" x1="144" y1="-1.49999" x2="144" y2="186" gradientUnits="userSpaceOnUse">
<stop stop-color="#11DF97"/>
<stop offset="1" stop-color="#1E7FA9"/>
</linearGradient>
<linearGradient id="paint6_linear_4_3" x1="144" y1="-1.5" x2="144" y2="186" gradientUnits="userSpaceOnUse">
<stop stop-color="#11DF97"/>
<stop offset="1" stop-color="#1E7FA9"/>
</linearGradient>
<clipPath id="clip0_4_3">
<rect width="246" height="186" fill="white"/>
</clipPath>
</defs>
</svg>
